<svg width="233" height="50" viewBox="0 0 233 50" fill="none" xmlns="http://www.w3.org/2000/svg">
<path d="M12.48 8.8H1.872V27H12.48C19.552 27 24.076 23.646 24.076 17.9C24.076 12.128 19.552 8.8 12.48 8.8ZM11.96 22.164H8.216V13.636H11.96C15.444 13.636 17.602 15.144 17.602 17.9C17.602 20.656 15.444 22.164 11.96 22.164ZM33.2258 27V8.8H26.8818V27H33.2258ZM47.2065 15.144C44.2685 14.91 42.6305 14.728 42.6305 13.844C42.6305 12.856 44.7625 12.622 46.6085 12.622C49.3385 12.622 51.7565 13.168 53.8105 14.52L56.8265 10.828C54.2005 9.086 50.4305 8.202 46.6085 8.202C40.7065 8.202 36.3645 10.386 36.3645 14.364C36.3645 18.524 41.3305 19.798 46.9205 20.292C50.3005 20.578 51.3405 20.89 51.3405 21.774C51.3405 22.684 50.0665 23.126 47.4665 23.126C43.9045 23.126 40.8105 22.06 38.7305 20.5L35.5845 24.14C38.5225 26.35 42.6305 27.598 47.3625 27.598C54.0965 27.598 57.6065 25.05 57.6065 21.124C57.6065 16.808 53.2905 15.638 47.2065 15.144ZM79.0534 8.8H58.3314V13.61H65.5074V27H71.8514V13.61H79.0534V8.8ZM96.3999 8.8V17.926C96.3999 20.63 94.9959 22.58 91.8759 22.58C88.7299 22.58 87.3259 20.63 87.3259 17.926V8.8H80.9819V18.42C80.9819 24.036 84.9079 27.598 91.8759 27.598C98.8439 27.598 102.744 24.036 102.744 18.42V8.8H96.3999ZM128.381 27L123.259 21.046C125.989 20.136 127.809 18.212 127.809 15.222C127.809 10.88 123.961 8.8 119.099 8.8H106.177V27H112.469V21.644H116.733L121.153 27H128.381ZM112.469 17.406V13.35H118.579C120.217 13.35 121.387 13.818 121.387 15.378C121.387 16.938 120.217 17.406 118.579 17.406H112.469ZM147.472 17.562C150.228 17.38 151.762 15.586 151.762 13.532C151.762 10.672 148.85 8.8 144.274 8.8H130.806V27H145.314C149.89 27 152.802 25.076 152.802 22.034C152.802 19.278 150.384 17.744 147.472 17.562ZM137.046 12.882H143.234C144.534 12.882 145.47 13.272 145.47 14.39C145.47 15.534 144.534 15.924 143.234 15.924H137.046V12.882ZM143.988 22.918H137.046V19.616H143.988C145.418 19.616 146.302 20.084 146.302 21.254C146.302 22.424 145.418 22.918 143.988 22.918ZM161.829 27V8.8H155.485V27H161.829ZM176.72 27.598C184.026 27.598 188.862 24.114 188.862 17.9C188.862 11.686 184.026 8.202 176.72 8.202C169.44 8.202 164.604 11.686 164.604 17.9C164.604 24.114 169.44 27.598 176.72 27.598ZM176.72 22.632C173.184 22.632 171.026 20.89 171.026 17.9C171.026 14.91 173.21 13.168 176.72 13.168C180.256 13.168 182.414 14.91 182.414 17.9C182.414 20.89 180.256 22.632 176.72 22.632ZM197.361 8.54C193.981 8.54 190.835 10.594 190.835 14.208C190.835 17.822 193.981 19.876 197.361 19.876C200.741 19.876 203.913 17.822 203.913 14.208C203.913 10.594 200.741 8.54 197.361 8.54ZM197.387 18.966C194.449 18.966 191.849 17.328 191.849 14.208C191.849 11.088 194.449 9.45 197.387 9.45C200.299 9.45 202.899 11.088 202.899 14.208C202.899 17.328 200.299 18.966 197.387 18.966ZM200.949 13.168C200.949 11.79 199.727 11.14 198.167 11.14H194.111V16.912H196.243V15.222H197.309L198.713 16.912H201.105L199.493 15.04C200.377 14.728 200.949 14.13 200.949 13.168ZM196.243 12.622H197.881C198.427 12.622 198.765 12.778 198.765 13.246C198.765 13.688 198.427 13.87 197.881 13.87H196.243V12.622Z" fill="#202020"/>
<path d="M5.8482 41.6897C5.42498 41.9206 4.9761 42.113 4.45027 42.113C3.71925 42.113 3.11648 41.7282 3.11648 40.9459V37.2908H6.18165V36.098H3.11648V34.4693H1.61595V36.098H0.2565V37.2908H1.61595V41.1896C1.61595 42.6516 2.70608 43.3826 4.07835 43.3826C4.88633 43.3826 5.66865 43.1133 6.24578 42.7286L5.8482 41.6897ZM12.3361 35.8415C10.8997 35.8415 9.7455 36.4571 9.1299 37.4575V36.1493V33.6356H7.62937V36.098V43.1261H9.1299V38.8041C9.73267 37.6499 10.7458 37.0856 11.9514 37.0856C13.3493 37.0856 14.0547 37.8294 14.0547 39.2145V43.1261H15.5424V39.1119C15.5424 37.2138 14.4779 35.8415 12.3361 35.8415ZM18.7739 39.9455H25.7507C25.7763 39.8686 25.7892 39.7788 25.7892 39.6121C25.7892 37.1497 24.1476 35.8287 21.621 35.8287C18.915 35.8287 17.299 37.2908 17.299 39.6249C17.299 41.9334 18.915 43.3955 21.7236 43.3955C23.3652 43.3955 24.5836 42.9979 25.5455 42.1386L24.6734 41.2024C23.9039 41.8821 23.0959 42.2156 21.8006 42.2156C20.0307 42.2156 18.915 41.4717 18.7739 39.9455ZM21.6339 37.0086C23.019 37.0086 24.0193 37.5857 24.3399 38.8682L18.838 38.8811C19.1202 37.637 20.159 37.0086 21.6339 37.0086ZM39.045 41.5358L37.6343 40.9459C37.1726 41.818 36.1979 42.1514 35.236 42.1514C33.5687 42.1514 32.3504 41.305 32.3504 39.6249C32.3504 37.9192 33.5687 37.0727 35.236 37.0727C36.1979 37.0727 37.1341 37.3934 37.5958 38.2398L39.0065 37.637C38.3909 36.6239 37.1854 35.8287 35.2232 35.8287C32.5171 35.8287 30.8755 37.3036 30.8755 39.6249C30.8755 41.9206 32.5171 43.3955 35.2232 43.3955C37.2239 43.3955 38.4294 42.6003 39.045 41.5358ZM45.3129 35.8415C43.8765 35.8415 42.7223 36.4571 42.1067 37.4575V36.1493V33.6356H40.6062V36.098V43.1261H42.1067V38.8041C42.7095 37.6499 43.7226 37.0856 44.9282 37.0856C46.3261 37.0856 47.0315 37.8294 47.0315 39.2145V43.1261H48.5192V39.1119C48.5192 37.2138 47.4547 35.8415 45.3129 35.8415ZM54.2516 35.8415C52.9819 35.8415 51.6353 36.1878 50.7632 36.7136L51.3018 37.7268C52.1098 37.2523 52.9306 37.0214 53.9694 37.0214C55.7777 37.0214 56.7011 37.7012 56.7011 39.2145V39.7275C56.1497 39.0478 55.0724 38.4707 53.636 38.4707C52.1226 38.4707 50.1091 39.0863 50.1091 40.9202C50.1091 42.767 52.1226 43.3826 53.636 43.3826C55.0724 43.3826 56.1497 42.8055 56.7011 42.1258V42.1386C56.7011 42.4721 56.7909 42.8183 56.9705 43.1261H58.5223C58.2914 42.7157 58.2017 42.2925 58.2017 41.7667V39.2145C58.2017 37.0086 56.7011 35.8415 54.2516 35.8415ZM56.7268 41.0357C56.1625 41.9975 54.9698 42.3053 53.9181 42.3053C52.9819 42.3053 51.584 42.0617 51.584 40.9202C51.584 39.7916 52.9819 39.548 53.9181 39.548C54.9698 39.548 56.1625 39.8429 56.7268 40.8176V41.0357ZM64.1927 43.3955C66.9245 43.3955 68.5661 41.9462 68.5661 39.6249C68.5661 37.2908 66.9245 35.8287 64.1927 35.8287C61.4738 35.8287 59.8194 37.2908 59.8194 39.6249C59.8194 41.9462 61.4738 43.3955 64.1927 43.3955ZM64.1927 42.1386C62.5383 42.1386 61.2943 41.305 61.2943 39.6249C61.2943 37.9192 62.5383 37.0856 64.1927 37.0856C65.86 37.0856 67.104 37.9192 67.104 39.6249C67.104 41.305 65.86 42.1386 64.1927 42.1386ZM73.9674 38.8939C72.531 38.8041 71.4152 38.6759 71.4152 37.9577C71.4152 37.1882 72.7362 36.9958 73.6852 36.9958C74.9677 37.0086 75.904 37.3934 76.5837 37.9192L77.366 36.9445C76.5452 36.3417 75.1986 35.8287 73.7622 35.8287C71.4024 35.8287 69.9916 36.6752 69.9916 38.0474C69.9916 39.548 71.8128 39.9968 73.7237 40.1379C75.3781 40.2662 76.2887 40.4842 76.2887 41.1896C76.2887 41.8949 75.2884 42.2284 73.993 42.2284C72.4925 42.2284 71.3511 41.7667 70.5303 41.0613L69.7223 41.9462C70.7355 42.8312 72.236 43.3955 73.9546 43.3955C76.4298 43.3955 77.7123 42.3695 77.7123 41.0613C77.7123 39.6377 76.122 39.0478 73.9674 38.8939ZM87.0874 43.3955C89.8191 43.3955 91.4607 41.9462 91.4607 39.6249C91.4607 37.2908 89.8191 35.8287 87.0874 35.8287C84.3685 35.8287 82.714 37.2908 82.714 39.6249C82.714 41.9462 84.3685 43.3955 87.0874 43.3955ZM87.0874 42.1386C85.4329 42.1386 84.1889 41.305 84.1889 39.6249C84.1889 37.9192 85.4329 37.0856 87.0874 37.0856C88.7546 37.0856 89.9986 37.9192 89.9986 39.6249C89.9986 41.305 88.7546 42.1386 87.0874 42.1386ZM95.0952 35.5209C95.0952 34.7258 95.6466 34.4308 96.429 34.4308C96.8907 34.4308 97.3267 34.5462 97.8141 34.8668L98.2629 33.9306C97.6986 33.5715 96.8778 33.3791 96.1596 33.3791C94.7617 33.3791 93.6203 34.0973 93.6203 35.7133V36.098H92.2608V37.2779H93.6203V43.1261H95.1208V37.2779H98.186V36.098H95.0952V35.5209ZM110.735 41.5358L109.324 40.9459C108.862 41.818 107.888 42.1514 106.926 42.1514C105.258 42.1514 104.04 41.305 104.04 39.6249C104.04 37.9192 105.258 37.0727 106.926 37.0727C107.888 37.0727 108.824 37.3934 109.286 38.2398L110.696 37.637C110.081 36.6239 108.875 35.8287 106.913 35.8287C104.207 35.8287 102.565 37.3036 102.565 39.6249C102.565 41.9206 104.207 43.3955 106.913 43.3955C108.914 43.3955 110.119 42.6003 110.735 41.5358ZM113.796 43.1261V39.2402C114.271 37.9192 115.553 37.2651 117.118 37.2651V35.957C115.669 35.957 114.361 36.5726 113.796 37.7012V36.098H112.296V43.1261H113.796ZM119.119 39.9455H126.096C126.122 39.8686 126.135 39.7788 126.135 39.6121C126.135 37.1497 124.493 35.8287 121.967 35.8287C119.261 35.8287 117.645 37.2908 117.645 39.6249C117.645 41.9334 119.261 43.3955 122.069 43.3955C123.711 43.3955 124.929 42.9979 125.891 42.1386L125.019 41.2024C124.249 41.8821 123.442 42.2156 122.146 42.2156C120.376 42.2156 119.261 41.4717 119.119 39.9455ZM121.979 37.0086C123.365 37.0086 124.365 37.5857 124.686 38.8682L119.184 38.8811C119.466 37.637 120.505 37.0086 121.979 37.0086ZM131.352 35.8415C130.082 35.8415 128.736 36.1878 127.863 36.7136L128.402 37.7268C129.21 37.2523 130.031 37.0214 131.07 37.0214C132.878 37.0214 133.801 37.7012 133.801 39.2145V39.7275C133.25 39.0478 132.173 38.4707 130.736 38.4707C129.223 38.4707 127.209 39.0863 127.209 40.9202C127.209 42.767 129.223 43.3826 130.736 43.3826C132.173 43.3826 133.25 42.8055 133.801 42.1258V42.1386C133.801 42.4721 133.891 42.8183 134.071 43.1261H135.623C135.392 42.7157 135.302 42.2925 135.302 41.7667V39.2145C135.302 37.0086 133.801 35.8415 131.352 35.8415ZM133.827 41.0357C133.263 41.9975 132.07 42.3053 131.018 42.3053C130.082 42.3053 128.684 42.0617 128.684 40.9202C128.684 39.7916 130.082 39.548 131.018 39.548C132.07 39.548 133.263 39.8429 133.827 40.8176V41.0357ZM142.114 41.6897C141.691 41.9206 141.242 42.113 140.716 42.113C139.985 42.113 139.382 41.7282 139.382 40.9459V37.2908H142.447V36.098H139.382V34.4693H137.882V36.098H136.522V37.2908H137.882V41.1896C137.882 42.6516 138.972 43.3826 140.344 43.3826C141.152 43.3826 141.934 43.1133 142.511 42.7286L142.114 41.6897ZM144.664 35.1362C145.216 35.1362 145.614 34.7642 145.614 34.3025C145.614 33.8152 145.216 33.4689 144.664 33.4689C144.113 33.4689 143.703 33.8152 143.703 34.3025C143.703 34.7642 144.113 35.1362 144.664 35.1362ZM145.421 36.098H143.933V43.1261H145.421V36.098ZM151.613 43.3955C154.345 43.3955 155.986 41.9462 155.986 39.6249C155.986 37.2908 154.345 35.8287 151.613 35.8287C148.894 35.8287 147.24 37.2908 147.24 39.6249C147.24 41.9462 148.894 43.3955 151.613 43.3955ZM151.613 42.1386C149.959 42.1386 148.715 41.305 148.715 39.6249C148.715 37.9192 149.959 37.0856 151.613 37.0856C153.28 37.0856 154.524 37.9192 154.524 39.6249C154.524 41.305 153.28 42.1386 151.613 42.1386ZM159.31 43.1261V38.8041C159.913 37.6499 160.926 37.0856 162.132 37.0856C163.53 37.0856 164.235 37.8294 164.235 39.2145V43.1261H165.723V39.1119C165.723 37.2138 164.658 35.8415 162.516 35.8415C161.08 35.8415 159.926 36.4571 159.31 37.4575V36.098H157.81V43.1261H159.31ZM168.582 43.2672C169.159 43.2672 169.57 42.8953 169.57 42.3951C169.57 41.8949 169.159 41.4974 168.582 41.4974C168.018 41.4974 167.608 41.8949 167.608 42.3951C167.608 42.8953 168.018 43.2672 168.582 43.2672Z" fill="#202020"/>
</svg>
